<svg id="Layer_1" data-name="Layer 1" xmlns="http://www.w3.org/2000/svg" viewBox="0 0 512 512"><rect x="-22.5218" y="-22.5218" width="557.0436" height="557.0436" style="fill:#fbfaf6"/><g id="Page-1"><g id="_021---Tick-File" data-name="021---Tick-File"><path id="Shape" d="M490.7,42.7A42.7417,42.7417,0,0,0,448,0H106.7A42.6777,42.6777,0,0,0,64,42.7V341.4a8.5,8.5,0,0,0,17,0V42.7a25.6494,25.6494,0,0,1,25.6-25.6H448a25.6494,25.6494,0,0,1,25.6,25.6V375.5H413.9a42.7417,42.7417,0,0,0-42.7,42.7v59.7H209.1a8.5,8.5,0,0,0,0,17H379.8a8.3927,8.3927,0,0,0,6-2.5L488.2,390a8.5668,8.5668,0,0,0,2.5-6ZM413.9,392.5h47.7l-73.3,73.3V418.1A25.5852,25.5852,0,0,1,413.9,392.5Z" style="fill:#1e1e1e"/><path id="Shape-2" data-name="Shape" d="M21.3,409.6a33.9734,33.9734,0,0,0,10,24.1L99.6,502a34.1475,34.1475,0,0,0,24.1,10,24.3687,24.3687,0,0,0,2.7-.1,34.0464,34.0464,0,0,0,25-14.1L305,284.5a34.138,34.138,0,1,0-55.4-39.9l-10.8,15a8.6079,8.6079,0,0,0-1,8.6,8.5,8.5,0,0,0,14.8,1.3l10.8-15a17.0462,17.0462,0,1,1,27.6,20L137.6,487.8a16.8793,16.8793,0,0,1-12.5,7,17.3694,17.3694,0,0,1-13.5-4.9L43.3,421.6a16.96,16.96,0,0,1,0-24.1,17.5252,17.5252,0,0,1,24.1,0l47,47a8.4566,8.4566,0,0,0,12.9-1L228,303.7a8.6079,8.6079,0,0,0,1-8.6,8.5,8.5,0,0,0-14.8-1.3L119.4,425.5,79.5,385.6a34.9782,34.9782,0,0,0-48.3,0,33.8915,33.8915,0,0,0-9.9,24Z" style="fill:#79b243"/><path id="Shape-3" data-name="Shape" d="M140.8,51.2H123.7a8.5,8.5,0,0,0,0,17h17.1a8.5,8.5,0,0,0,0-17Z" style="fill:#1e1e1e"/><path id="Shape-4" data-name="Shape" d="M430.9,51.2h-256a8.5,8.5,0,0,0,0,17h256a8.5,8.5,0,0,0,0-17Z" style="fill:#1e1e1e"/><path id="Shape-5" data-name="Shape" d="M140.8,102.4H123.7a8.5,8.5,0,0,0,0,17h17.1a8.5,8.5,0,0,0,0-17Z" style="fill:#1e1e1e"/><path id="Shape-6" data-name="Shape" d="M174.9,119.5H371.2a8.5,8.5,0,0,0,0-17H174.9a8.5,8.5,0,1,0,0,17Z" style="fill:#1e1e1e"/><path id="Shape-7" data-name="Shape" d="M140.8,153.6H123.7a8.5,8.5,0,0,0,0,17h17.1a8.5,8.5,0,0,0,0-17Z" style="fill:#1e1e1e"/><path id="Shape-8" data-name="Shape" d="M174.9,170.7H311.4a8.5,8.5,0,0,0,0-17H174.9a8.5,8.5,0,0,0,0,17Z" style="fill:#1e1e1e"/><path id="Shape-9" data-name="Shape" d="M456.5,179.2a8.5,8.5,0,0,0-17,0V298.7a8.5,8.5,0,1,0,17,0Z" style="fill:#1e1e1e"/><path id="Shape-10" data-name="Shape" d="M448,324.3a8.4929,8.4929,0,0,0-8.5,8.5v17.1a8.5,8.5,0,0,0,17,0V332.8A8.4929,8.4929,0,0,0,448,324.3Z" style="fill:#1e1e1e"/></g></g></svg>