<svg xmlns="http://www.w3.org/2000/svg" width="17.341" height="11.565" viewBox="0 0 17.341 11.565">
  <path id="Icon_ionic-ios-arrow-round-down" data-name="Icon ionic-ios-arrow-round-down" d="M22.592,18.934a.787.787,0,0,0-1.108-.006l-3.668,3.656V8.652a.783.783,0,0,0-1.566,0V22.584l-3.668-3.662a.793.793,0,0,0-1.108.006.78.78,0,0,0,.006,1.1l5,4.963h0a.879.879,0,0,0,.247.163.747.747,0,0,0,.3.06.785.785,0,0,0,.548-.223l5-4.963A.767.767,0,0,0,22.592,18.934Z" transform="translate(-7.875 22.813) rotate(-90)"/>
</svg>
